# xmcd
#
# Track frame offsets:
#	150
#	26755
#	51115
#	84117
#	105230
#	134530
#	169940
#
# Disc length: 2669 seconds
#
# Revision: 1
# Processed by: cddbd v1.5.2PL0 Copyright (c) Steve Scherf et al.
# Submitted via: EZCDAudioConverter 8.2.2.1
#
DISCID=4f0a6b07
DTITLE=THE MIDNIGHT RAMBLERS - COUNTRY MUSIC - THE MIDNIGHT RAMBLERS - 1997 (C
DTITLE=D 6085-2) RGE
DYEAR=1997
DGENRE=Country
TTITLE0=COUNTRY GOES ON (BY GILMAR SINISTRO)
TTITLE1=AND THE DEVIL WENT DOWN TO THE COUNTRY MUSIC (BY GILMAR SINISTRO)
TTITLE2=SWEET MEMORIES (BY GILMAR SINISTRO)
TTITLE3=DUELIN'SONGS (BY GILMAR SINISTRO)
TTITLE4=LIKE IN THE GOOD OLD WESTERN DAYS (BY GILMAR SINISTRO)
TTITLE5=I CAN'T STOP SINGIN' THESE SONGS (BY GILMAR SINISTRO)
TTITLE6=COUNTRY MUSIC IS KNOCKIN' YOUR DOOR (BY GILMAR SINISTRO)
EXTD=
EXTT0=
EXTT1=
EXTT2=
EXTT3=
EXTT4=
EXTT5=
EXTT6=
PLAYORDER=
